<svg width="452" height="150" viewBox="0 0 452 150" fill="none" xmlns="http://www.w3.org/2000/svg">
<path fill-rule="evenodd" clip-rule="evenodd" d="M186.574 70.8526C185.546 71.6952 184.363 72.1076 183.018 72.1076H178.177V61.2251H182.958C184.554 61.2251 185.815 61.6315 186.735 62.4502C187.655 63.2689 188.121 64.6255 188.121 66.514C188.121 68.5697 187.608 70.01 186.58 70.8526H186.574ZM193.117 56.1335C191.88 54.998 190.392 54.1614 188.647 53.6175C186.908 53.0677 185.008 52.7988 182.952 52.7988H169.052V96.5857H178.177V80.6116H183.46C185.558 80.6116 187.44 80.2769 189.119 79.6016C190.799 78.9263 192.221 77.9881 193.398 76.7749C194.57 75.5558 195.472 74.0916 196.106 72.3705C196.733 70.6494 197.05 68.743 197.05 66.6454C197.05 64.249 196.703 62.1873 196.01 60.4482C195.317 58.7092 194.349 57.2689 193.117 56.1395V56.1335Z" fill="#fefefe"/>
<path fill-rule="evenodd" clip-rule="evenodd" d="M222.651 83.4323C222.651 84.9024 222.179 86.0498 221.235 86.8924C220.291 87.7351 219.167 88.1474 217.871 88.1474C216.066 88.1474 214.775 87.6036 213.998 86.5159C213.221 85.4223 212.833 84.0359 212.833 82.3625V66.1255C212.833 65.6235 212.928 65.0857 213.114 64.5239C213.305 63.9562 213.598 63.4303 213.992 62.9462C214.392 62.4681 214.906 62.0677 215.534 61.751C216.161 61.4402 216.938 61.2789 217.865 61.2789C218.785 61.2789 219.55 61.4582 220.159 61.8167C220.769 62.1693 221.259 62.6056 221.635 63.1016C222.012 63.6096 222.275 64.1355 222.424 64.6733C222.568 65.2231 222.645 65.7072 222.645 66.1195V83.4203L222.651 83.4323ZM228.442 56.9104C227.313 55.5896 225.861 54.5199 224.098 53.7072C222.335 52.8884 220.261 52.4821 217.871 52.4821C215.313 52.4821 213.137 52.9064 211.357 53.7729C209.576 54.6335 208.118 55.7331 206.982 57.0777C205.847 58.4163 205.034 59.9163 204.526 61.5717C204.024 63.2271 203.773 64.8765 203.773 66.5139V82.1116C203.773 84.0896 204.036 85.9721 204.562 87.7769C205.088 89.5817 205.918 91.1653 207.048 92.5279C208.177 93.8964 209.635 94.9721 211.422 95.7669C213.203 96.5618 215.355 96.9621 217.871 96.9621C219.926 96.9621 221.803 96.6335 223.5 95.988C225.197 95.3367 226.667 94.3924 227.904 93.1554C229.141 91.9183 230.104 90.4303 230.797 88.6853C231.49 86.9462 231.837 84.9861 231.837 82.8048V66.508C231.837 64.7869 231.55 63.0896 230.988 61.4104C230.42 59.7371 229.572 58.2371 228.442 56.9104Z" fill="#fefefe"/>
<path fill-rule="evenodd" clip-rule="evenodd" d="M250.016 64.5299C250.183 63.9622 250.458 63.4363 250.835 62.9522C251.211 62.4741 251.713 62.0737 252.347 61.757C252.974 61.4462 253.751 61.2849 254.677 61.2849C255.556 61.2849 256.315 61.4522 256.942 61.7869C257.57 62.1215 258.096 62.5219 258.514 62.9821C258.932 63.4482 259.237 63.9562 259.422 64.5239C259.614 65.0857 259.745 65.5877 259.835 66L268.452 63.4183C268.159 61.996 267.657 60.6155 266.946 59.2948C266.235 57.9741 265.309 56.8088 264.179 55.8048C263.05 54.8008 261.681 53.994 260.092 53.3845C258.496 52.7749 256.697 52.4701 254.683 52.4701C252.126 52.4701 249.95 52.8944 248.169 53.761C246.383 54.6215 244.942 55.7211 243.831 57.0657C242.719 58.4044 241.912 59.9044 241.41 61.5598C240.908 63.2151 240.651 64.8645 240.651 66.502V82.0996C240.651 84.0777 240.914 85.9602 241.44 87.7649C241.966 89.5697 242.779 91.1534 243.897 92.5159C245.008 93.8845 246.454 94.9602 248.235 95.755C250.016 96.5498 252.167 96.9502 254.683 96.9502C258.245 96.9502 261.269 95.9881 263.743 94.0518C266.217 92.1215 267.771 89.4622 268.398 86.0618L259.715 83.5398C259.548 84.9681 258.98 86.0857 258.018 86.9044C257.056 87.7231 255.944 88.1295 254.683 88.1295C252.879 88.1295 251.612 87.5857 250.877 86.498C250.142 85.4044 249.777 84.0179 249.777 82.3446V66.1076C249.777 65.6056 249.861 65.0677 250.028 64.506L250.016 64.5299Z" fill="#fefefe"/>
<path fill-rule="evenodd" clip-rule="evenodd" d="M285.502 64.5299C285.669 63.9622 285.944 63.4363 286.321 62.9522C286.697 62.4741 287.199 62.0737 287.833 61.757C288.46 61.4462 289.237 61.2849 290.163 61.2849C291.042 61.2849 291.801 61.4522 292.428 61.7869C293.056 62.1215 293.582 62.5219 294 62.9821C294.418 63.4482 294.723 63.9562 294.908 64.5239C295.1 65.0857 295.231 65.5877 295.315 66L303.932 63.4183C303.639 61.996 303.137 60.6155 302.426 59.2948C301.715 57.9741 300.789 56.8088 299.659 55.8048C298.53 54.8008 297.167 53.994 295.572 53.3845C293.976 52.7749 292.171 52.4701 290.163 52.4701C287.606 52.4701 285.43 52.8944 283.649 53.761C281.863 54.6215 280.416 55.7211 279.311 57.0657C278.199 58.4044 277.392 59.9044 276.89 61.5598C276.388 63.2151 276.137 64.8645 276.137 66.502V82.0996C276.137 84.0777 276.4 85.9602 276.926 87.7649C277.452 89.5697 278.265 91.1534 279.382 92.5159C280.494 93.8845 281.94 94.9602 283.727 95.755C285.508 96.5498 287.659 96.9502 290.175 96.9502C293.737 96.9502 296.761 95.9881 299.235 94.0518C301.709 92.1215 303.263 89.4622 303.89 86.0618L295.207 83.5398C295.04 84.9681 294.472 86.0857 293.51 86.9044C292.542 87.7231 291.43 88.1295 290.175 88.1295C288.371 88.1295 287.104 87.5857 286.369 86.498C285.633 85.4044 285.269 84.0179 285.269 82.3446V66.1076C285.269 65.6056 285.353 65.0677 285.52 64.506L285.502 64.5299Z" fill="#fefefe"/>
<path fill-rule="evenodd" clip-rule="evenodd" d="M312.616 96.5797H338.098V87.9622H321.741V78.6514H335.833V70.2849H321.741V61.2251H338.098V52.7928H312.616V96.5797Z" fill="#fefefe"/>
<path fill-rule="evenodd" clip-rule="evenodd" d="M343.13 61.0936H352.506V96.5797H361.566V61.0936H370.936V52.7928H343.13V61.0936Z" fill="#fefefe"/>
<path fill-rule="evenodd" clip-rule="evenodd" d="M400.07 52.7928L387.55 78.2151H387.424V52.7928H378.365V96.5797H386.922L399.126 72.741H399.185V96.5797H408.311V52.7928H400.07Z" fill="#fefefe"/>
<path fill-rule="evenodd" clip-rule="evenodd" d="M100.255 47.259L50.516 44.6414C44.6833 53.2171 41.271 63.5677 41.271 74.7191C41.271 77.7311 41.5339 80.6773 42.012 83.5518L100.673 49.0697C100.452 48.496 100.327 47.8865 100.261 47.253L100.255 47.259Z" fill="#fefefe"/>
<path fill-rule="evenodd" clip-rule="evenodd" d="M113.409 50.5279L147.705 83.0438C148.13 80.3307 148.351 77.5578 148.351 74.7251C148.351 63.239 144.723 52.6016 138.562 43.8825L114.64 46.7749C114.586 48.1673 114.138 49.4522 113.403 50.5339L113.409 50.5279Z" fill="#fefefe"/>
<path fill-rule="evenodd" clip-rule="evenodd" d="M102.108 51.3705L43.488 89.9821C47.498 103.494 56.7012 114.771 68.7848 121.512L103.195 52.3446C102.801 52.0578 102.442 51.7351 102.114 51.3765L102.108 51.3705Z" fill="#fefefe"/>
<path fill-rule="evenodd" clip-rule="evenodd" d="M105.616 53.4681L74.4382 124.243C80.7191 126.831 87.5976 128.265 94.8107 128.265C101.874 128.265 108.61 126.884 114.783 124.398L107.038 53.6833C106.548 53.6594 106.076 53.5877 105.616 53.4681Z" fill="#fefefe"/>
<path fill-rule="evenodd" clip-rule="evenodd" d="M109.709 53.3068L120.681 121.596C132.879 114.849 142.154 103.482 146.164 89.8566L111.424 52.4821C110.899 52.8347 110.319 53.0976 109.703 53.3008L109.709 53.3068Z" fill="#fefefe"/>
<path fill-rule="evenodd" clip-rule="evenodd" d="M102.879 40.8705L91.6734 21.2749C77.0977 22.1175 64.0877 28.7928 54.9324 39L100.488 44.4562C100.906 43.0159 101.749 41.7849 102.873 40.8645L102.879 40.8705Z" fill="#fefefe"/>
<path fill-rule="evenodd" clip-rule="evenodd" d="M107.582 39.2271C110.534 39.2869 113.032 41.1155 114.102 43.6853L134.546 38.8327C125.462 28.7809 112.614 22.2072 98.2231 21.2988L105.771 39.4482C106.357 39.3108 106.96 39.2151 107.588 39.2271H107.582Z" fill="#fefefe"/>
</svg>
