<?xml version="1.0" encoding="utf-8"?>
<!-- Generator: Adobe Illustrator 23.0.2, SVG Export Plug-In . SVG Version: 6.00 Build 0)  -->
<svg version="1.1" id="Layer_1" xmlns="http://www.w3.org/2000/svg" xmlns:xlink="http://www.w3.org/1999/xlink" x="0px" y="0px"
     viewBox="0 0 952.4 300.5" enable-background="new 0 0 952.4 300.5" xml:space="preserve">
<g>
	<g>
		<path fill="#FFFFFF" d="M180.4,91L93.7,287.9c17.5,7.2,36.6,11.2,56.7,11.2c19.6,0,38.3-3.8,55.5-10.8L184.4,91.5
			C183,91.5,181.7,91.3,180.4,91"/>
        <path fill="#FFFFFF" d="M170.7,85.1L7.6,192.6c11.2,37.6,36.8,69,70.4,87.7l95.7-192.5C172.6,87,171.6,86.1,170.7,85.1"/>
        <path fill="#FFFFFF" d="M191.8,90.5l30.5,190c33.9-18.8,59.8-50.4,70.9-88.4L196.6,88.2C195.2,89.2,193.5,90,191.8,90.5"/>
        <path fill="#FFFFFF" d="M172.8,55.9L141.6,1.4C101.1,3.7,64.9,22.3,39.4,50.7l126.7,15.2C167.3,61.9,169.6,58.5,172.8,55.9"/>
        <path fill="#FFFFFF" d="M272.1,64.3l-66.6,8c-0.2,3.9-1.4,7.5-3.4,10.5l95.4,90.4c1.1-7.5,1.8-15.2,1.8-23.1
			C299.3,118.1,289.2,88.5,272.1,64.3"/>
        <path fill="#FFFFFF" d="M165.5,73.7L27.1,66.4C10.9,90.3,1.4,119.1,1.4,150.1c0,8.4,0.7,16.6,2,24.5l163.2-95.9
			C166,77.2,165.7,75.4,165.5,73.7"/>
        <path fill="#FFFFFF" d="M185.9,51.3c8.2,0.2,15.2,5.3,18.2,12.4l56.8-13.5c-25.3-28-61-46.3-101-48.8l21,50.5
			C182.4,51.6,184.1,51.3,185.9,51.3"/>
	</g>
    <g>
		<path fill="#FFFFFF" d="M388.7,270.5h-19.2c-0.1,0.6-0.4,1.6-0.8,3c-0.4,1.4-0.8,2.9-1.2,4.5c-0.4,1.6-0.8,3.1-1.2,4.5
			c-0.4,1.4-0.6,2.4-0.8,3h-11.8l20-69.2h10.9l20.1,69.2h-12L388.7,270.5z M375.6,246.4l-3.6,13.9h14.1l-3.5-13.8
			c-0.1-0.6-0.3-1.6-0.6-3s-0.6-2.8-1-4.4c-0.4-1.5-0.7-3-1-4.3c-0.3-1.4-0.5-2.3-0.6-2.9h-0.5L375.6,246.4z"/>
        <path fill="#FFFFFF" d="M451.6,270.7c-1.1,4.8-3.5,8.6-7.2,11.3c-3.6,2.7-8.1,4-13.2,4c-3.6,0-6.7-0.6-9.3-1.7
			c-2.7-1.1-4.9-2.7-6.7-4.7c-1.8-2-3.1-4.3-4-7c-0.9-2.7-1.3-5.6-1.3-8.7v-26.8c0-2.7,0.4-5.4,1.3-8c0.9-2.6,2.2-4.9,3.9-6.9
			c1.8-2,4-3.6,6.6-4.8c2.6-1.2,5.8-1.8,9.4-1.8c5.6,0,10.1,1.5,13.6,4.4c3.5,2.9,5.8,6.6,6.9,10.9l-10.8,3.6c-0.2-1-0.5-2-1-2.9
			c-0.5-0.9-1.1-1.8-1.9-2.5c-0.8-0.8-1.8-1.4-2.9-1.8c-1.1-0.5-2.4-0.7-3.9-0.7c-1.7,0-3.2,0.3-4.4,0.9c-1.2,0.6-2.2,1.4-3,2.3
			c-0.8,1-1.4,2-1.8,3.2c-0.4,1.2-0.6,2.4-0.6,3.6v27.5c0,1.5,0.2,2.8,0.6,4.2c0.4,1.3,1,2.5,1.8,3.5c0.8,1,1.9,1.8,3.1,2.3
			c1.2,0.6,2.7,0.8,4.3,0.8c2.5,0,4.5-0.7,6.3-2.1c1.7-1.4,2.8-3.3,3.3-5.8L451.6,270.7z"/>
        <path fill="#FFFFFF" d="M482.1,226.5v58.8h-11.3v-58.8h-15.2v-10.3h41.8v10.3H482.1z"/>
        <path fill="#FFFFFF" d="M537.1,243.6c-2.8,9-5.7,18.1-8.6,27.3c-1.1,3.2-2.2,5.8-3.4,7.8c-1.2,2-2.5,3.4-3.8,4.5
			c-1.3,1-2.8,1.7-4.3,2c-1.5,0.3-3.2,0.5-5,0.6h-5.6v-9.3h4.1c1.4,0,2.6-0.4,3.6-1.1c1-0.7,2-2.2,2.9-4.3c0.1-0.4,0.3-0.8,0.5-1.2
			c0.2-0.4,0.4-0.9,0.5-1.4l-18-52.1h11.7l6.6,21.4l5,16.3h0.5c0.5-1.9,1.3-4.5,2.2-7.9c1-3.4,2-6.9,3-10.7
			c1.1-3.7,2.1-7.4,3.1-10.8c1-3.5,1.8-6.2,2.3-8.3h11.1C542.7,225.5,539.9,234.5,537.1,243.6z"/>
	</g>
    <path fill="#FFFFFF" d="M413.3,63.2c-3-2.8-6.8-4.9-11.1-6.3c-4.4-1.4-9.1-2-14.2-2h-34.6v109h22.7v-39.8h13.2
		c5.2,0,9.9-0.8,14.1-2.5c4.1-1.7,7.7-4,10.7-7c2.9-3.1,5.1-6.7,6.7-11c1.5-4.2,2.3-9,2.3-14.2c0-6-0.9-11.1-2.6-15.5
		C418.9,69.6,416.4,66,413.3,63.2 M397.1,99.9c-2.6,2.1-5.5,3.1-8.9,3.1h-12.1V75.9H388c4,0,7.1,1,9.4,3.1c2.3,2,3.4,5.4,3.4,10.1
		C400.9,94.2,399.6,97.7,397.1,99.9"/>
    <path fill="#FFFFFF" d="M501.3,65.1c-2.8-3.3-6.4-5.9-10.8-8c-4.4-2.1-9.6-3.1-15.5-3.1c-6.4,0-11.8,1.1-16.2,3.2
		c-4.4,2.1-8.1,4.9-10.9,8.3c-2.8,3.3-4.9,7.1-6.2,11.2c-1.2,4.1-1.9,8.2-1.9,12.3v38.8c0,5,0.7,9.7,2,14.1
		c1.3,4.5,3.4,8.4,6.2,11.8c2.9,3.4,6.5,6.1,10.9,8.1c4.4,2,9.8,3,16.1,3c5.1,0,9.8-0.8,14-2.4c4.2-1.6,7.9-3.9,10.9-7
		c3.1-3.1,5.5-6.8,7.2-11.2c1.7-4.3,2.6-9.2,2.6-14.6V89.1c0-4.3-0.7-8.5-2.1-12.7C506.2,72.2,504.2,68.4,501.3,65.1 M486.9,131.2
		c0,3.7-1.1,6.5-3.5,8.6c-2.3,2.1-5.2,3.1-8.4,3.1c-4.5,0-7.7-1.3-9.7-4.1c-1.9-2.7-2.9-6.2-2.9-10.4V88.1c0-1.2,0.2-2.6,0.7-4
		c0.5-1.4,1.2-2.7,2.2-3.9c1-1.2,2.3-2.2,3.9-2.9c1.6-0.8,3.5-1.2,5.8-1.2c2.3,0,4.2,0.5,5.7,1.3c1.5,0.9,2.8,2,3.7,3.2
		c0.9,1.3,1.6,2.6,1.9,3.9c0.4,1.3,0.5,2.6,0.5,3.6V131.2z"/>
    <path fill="#FFFFFF" d="M555.1,84.1c0.4-1.4,1.1-2.7,2-3.9c0.9-1.2,2.2-2.2,3.7-3c1.6-0.8,3.5-1.2,5.9-1.2c2.1,0,4,0.4,5.6,1.2
		c1.5,0.9,2.9,1.9,3.9,3c1,1.2,1.8,2.4,2.3,3.9c0.4,1.4,0.8,2.7,1,3.7l21.5-6.4c-0.7-3.5-2-6.9-3.7-10.3c-1.8-3.3-4.1-6.2-6.9-8.6
		c-2.8-2.5-6.2-4.6-10.2-6.1c-4-1.5-8.4-2.3-13.4-2.3c-6.4,0-11.8,1-16.3,3.2c-4.4,2.2-8,4.9-10.8,8.2c-2.8,3.3-4.8,7.1-6,11.2
		c-1.3,4.1-1.9,8.2-1.9,12.3v38.8c0,5,0.7,9.6,2,14.1c1.3,4.5,3.3,8.4,6.1,11.8c2.8,3.4,6.4,6.1,10.8,8c4.4,2,9.8,3,16.1,3
		c8.8,0,16.4-2.4,22.5-7.2c6.1-4.8,10-11.4,11.6-19.9l-21.6-6.3c-0.4,3.6-1.8,6.3-4.3,8.4c-2.4,2-5.2,3.1-8.3,3.1
		c-4.6,0-7.7-1.3-9.5-4.1c-1.8-2.7-2.7-6.2-2.7-10.4V88.1C554.4,86.9,554.6,85.5,555.1,84.1"/>
    <path fill="#FFFFFF" d="M637.8,84.1c0.4-1.4,1.1-2.7,2-3.9c1-1.2,2.2-2.2,3.8-3c1.6-0.8,3.5-1.2,5.8-1.2c2.2,0,4,0.4,5.6,1.2
		c1.6,0.9,2.9,1.9,3.9,3c1,1.2,1.8,2.4,2.3,3.9c0.4,1.4,0.8,2.7,1,3.7l21.5-6.4c-0.7-3.5-2-6.9-3.8-10.3c-1.7-3.3-4.1-6.2-6.9-8.6
		c-2.8-2.5-6.2-4.6-10.2-6.1c-4-1.5-8.5-2.3-13.5-2.3c-6.4,0-11.8,1-16.2,3.2c-4.5,2.2-8.1,4.9-10.8,8.2c-2.8,3.3-4.8,7.1-6,11.2
		c-1.2,4.1-1.9,8.2-1.9,12.3v38.8c0,5,0.6,9.6,1.9,14.1c1.3,4.5,3.3,8.4,6.1,11.8c2.8,3.4,6.4,6.1,10.8,8c4.4,2,9.8,3,16.1,3
		c8.9,0,16.4-2.4,22.5-7.2c6.2-4.8,10-11.4,11.6-19.9l-21.6-6.3c-0.4,3.6-1.9,6.3-4.3,8.4c-2.4,2-5.1,3.1-8.3,3.1
		c-4.5,0-7.7-1.3-9.5-4.1c-1.8-2.7-2.8-6.2-2.8-10.4V88.1C637.1,86.9,637.3,85.5,637.8,84.1"/>
    <polygon fill="#FFFFFF" points="705.3,163.9 768.7,163.9 768.7,142.5 728,142.5 728,119.3 763.1,119.3 763.1,98.4 728,98.4
		728,75.9 768.7,75.9 768.7,54.9 705.3,54.9 	"/>
    <polygon fill="#FFFFFF" points="781.2,75.6 804.6,75.6 804.6,163.9 827.1,163.9 827.1,75.6 850.5,75.6 850.5,54.9 781.2,54.9 	"/>
    <polygon fill="#FFFFFF" points="923,54.9 891.9,118.2 891.5,118.2 891.5,54.9 869,54.9 869,163.9 890.3,163.9 920.7,104.6
		920.8,104.6 920.8,163.9 943.5,163.9 943.5,54.9 	"/>
</g>
</svg>